<?xml version="1.0" encoding="UTF-8"?> <svg xmlns="http://www.w3.org/2000/svg" width="30" height="30" viewBox="0 0 30 30" fill="none"> <path fill-rule="evenodd" clip-rule="evenodd" d="M15 1.25C7.40625 1.25 1.25 7.40625 1.25 15C1.25 22.5937 7.40625 28.75 15 28.75C22.5937 28.75 28.75 22.5937 28.75 15C28.75 7.40625 22.5937 1.25 15 1.25ZM10 13.75C9.66848 13.75 9.35054 13.8817 9.11612 14.1161C8.8817 14.3505 8.75 14.6685 8.75 15C8.75 15.3315 8.8817 15.6495 9.11612 15.8839C9.35054 16.1183 9.66848 16.25 10 16.25H20C20.3315 16.25 20.6495 16.1183 20.8839 15.8839C21.1183 15.6495 21.25 15.3315 21.25 15C21.25 14.6685 21.1183 14.3505 20.8839 14.1161C20.6495 13.8817 20.3315 13.75 20 13.75H10Z" fill="#FF2929"></path> </svg> 