<?xml version="1.0" encoding="UTF-8"?> <svg xmlns="http://www.w3.org/2000/svg" width="432" height="259" viewBox="0 0 432 259" fill="none"> <rect x="1.35428" y="1.35428" width="428.958" height="256.291" rx="25.7313" fill="#FFAF16" fill-opacity="0.06" stroke="#FFAF16" stroke-width="2.70856" stroke-dasharray="13.54 13.54"></rect> <path d="M177.736 208.504C180.112 208.504 182.096 209.3 183.689 210.893C185.282 212.486 186.078 214.47 186.078 216.846C186.078 219.223 185.282 221.207 183.689 222.8C182.096 224.392 180.112 225.189 177.736 225.189H170.91V235.048H168.256V208.504H177.736ZM177.736 222.686C179.379 222.686 180.731 222.142 181.793 221.055C182.88 219.943 183.424 218.54 183.424 216.846C183.424 215.153 182.88 213.762 181.793 212.675C180.731 211.563 179.379 211.007 177.736 211.007H170.91V222.686H177.736ZM198.358 215.633C200.659 215.633 202.466 216.341 203.781 217.756C205.121 219.147 205.79 221.03 205.79 223.406V235.048H203.288V223.406C203.288 221.713 202.833 220.398 201.923 219.463C201.038 218.527 199.774 218.06 198.131 218.06C196.311 218.06 194.832 218.641 193.694 219.804C192.556 220.942 191.988 222.711 191.988 225.113V235.048H189.485V208.504H191.988V219.046C193.403 216.77 195.527 215.633 198.358 215.633ZM225.76 232.659C223.838 234.555 221.487 235.503 218.707 235.503C215.926 235.503 213.562 234.555 211.616 232.659C209.694 230.738 208.734 228.374 208.734 225.568C208.734 222.762 209.694 220.411 211.616 218.515C213.562 216.594 215.926 215.633 218.707 215.633C221.487 215.633 223.838 216.594 225.76 218.515C227.706 220.411 228.68 222.762 228.68 225.568C228.68 228.374 227.706 230.738 225.76 232.659ZM213.398 230.915C214.839 232.356 216.608 233.076 218.707 233.076C220.805 233.076 222.574 232.356 224.015 230.915C225.456 229.448 226.177 227.666 226.177 225.568C226.177 223.47 225.456 221.7 224.015 220.259C222.574 218.793 220.805 218.06 218.707 218.06C216.608 218.06 214.839 218.793 213.398 220.259C211.957 221.7 211.236 223.47 211.236 225.568C211.236 227.666 211.957 229.448 213.398 230.915ZM241.788 218.515H236.327V230.005C236.327 231.041 236.529 231.787 236.934 232.242C237.338 232.672 237.945 232.899 238.754 232.924C239.563 232.924 240.574 232.899 241.788 232.849V235.048C239.133 235.452 237.136 235.263 235.796 234.479C234.482 233.695 233.824 232.204 233.824 230.005V218.515H229.843V216.088H233.824V211.538L236.327 210.779V216.088H241.788V218.515ZM259.941 232.659C258.02 234.555 255.669 235.503 252.888 235.503C250.107 235.503 247.743 234.555 245.797 232.659C243.876 230.738 242.915 228.374 242.915 225.568C242.915 222.762 243.876 220.411 245.797 218.515C247.743 216.594 250.107 215.633 252.888 215.633C255.669 215.633 258.02 216.594 259.941 218.515C261.887 220.411 262.861 222.762 262.861 225.568C262.861 228.374 261.887 230.738 259.941 232.659ZM247.579 230.915C249.02 232.356 250.79 233.076 252.888 233.076C254.986 233.076 256.756 232.356 258.197 230.915C259.638 229.448 260.358 227.666 260.358 225.568C260.358 223.47 259.638 221.7 258.197 220.259C256.756 218.793 254.986 218.06 252.888 218.06C250.79 218.06 249.02 218.793 247.579 220.259C246.138 221.7 245.418 223.47 245.418 225.568C245.418 227.666 246.138 229.448 247.579 230.915Z" fill="#FFAF16"></path> <path d="M181.659 113.332V118.651H174.405V125.906H169.085V118.651H161.875V113.332H169.085V106.121H174.405V113.332H181.659Z" fill="#FFAF16"></path> <path fill-rule="evenodd" clip-rule="evenodd" d="M208.068 100.064L207.157 102.883H204.411C201.979 102.883 199.645 103.849 197.925 105.57C196.205 107.29 195.239 109.623 195.239 112.056V130.402C195.239 132.834 196.205 135.168 197.925 136.888C199.645 138.608 201.979 139.575 204.411 139.575H238.045C240.478 139.575 242.811 138.608 244.532 136.888C246.252 135.168 247.218 132.834 247.218 130.402V112.056C247.218 109.623 246.252 107.29 244.532 105.57C242.811 103.849 240.478 102.883 238.045 102.883H235.297L234.389 100.064C233.792 98.2176 232.626 96.6081 231.058 95.4664C229.489 94.3248 227.599 93.7098 225.659 93.71H216.795C214.855 93.7098 212.965 94.3248 211.396 95.4664C209.828 96.6081 208.662 98.2176 208.065 100.064H208.068ZM204.411 108.998H211.609L213.89 101.944C214.089 101.329 214.477 100.792 214.999 100.412C215.522 100.031 216.151 99.8257 216.798 99.8252H225.659C226.305 99.8257 226.935 100.031 227.458 100.412C227.98 100.792 228.368 101.329 228.567 101.944L230.845 108.998H238.045C238.856 108.998 239.634 109.32 240.208 109.894C240.781 110.467 241.103 111.245 241.103 112.056V130.402C241.103 131.213 240.781 131.99 240.208 132.564C239.634 133.137 238.856 133.459 238.045 133.459H204.411C203.601 133.459 202.823 133.137 202.249 132.564C201.676 131.99 201.354 131.213 201.354 130.402V112.056C201.354 111.245 201.676 110.467 202.249 109.894C202.823 109.32 203.601 108.998 204.411 108.998Z" fill="#FFAF16"></path> <path fill-rule="evenodd" clip-rule="evenodd" d="M210.527 119.7C210.527 121.105 210.804 122.497 211.342 123.795C211.88 125.094 212.668 126.273 213.662 127.267C214.655 128.261 215.835 129.049 217.133 129.587C218.432 130.125 219.823 130.402 221.229 130.402C222.634 130.402 224.026 130.125 225.324 129.587C226.623 129.049 227.802 128.261 228.796 127.267C229.79 126.273 230.578 125.094 231.116 123.795C231.654 122.497 231.931 121.105 231.931 119.7C231.931 116.862 230.803 114.139 228.796 112.133C226.789 110.126 224.067 108.998 221.229 108.998C218.391 108.998 215.669 110.126 213.662 112.133C211.655 114.139 210.527 116.862 210.527 119.7V119.7ZM225.815 119.7C225.815 120.916 225.332 122.083 224.472 122.943C223.612 123.803 222.445 124.286 221.229 124.286C220.012 124.286 218.846 123.803 217.986 122.943C217.126 122.083 216.642 120.916 216.642 119.7C216.642 118.483 217.126 117.317 217.986 116.457C218.846 115.597 220.012 115.113 221.229 115.113C222.445 115.113 223.612 115.597 224.472 116.457C225.332 117.317 225.815 118.483 225.815 119.7Z" fill="#FFAF16"></path> </svg> 