<?xml version="1.0" encoding="UTF-8"?> <svg xmlns="http://www.w3.org/2000/svg" width="158" height="45" viewBox="0 0 158 45" fill="none"> <path d="M155.47 43.7449C155.334 44.2804 154.791 44.6048 154.255 44.4695L145.529 42.265C144.994 42.1297 144.669 41.586 144.805 41.0505C144.94 40.5151 145.484 40.1907 146.019 40.326L153.775 42.2855L155.735 34.5292C155.87 33.9938 156.414 33.6693 156.949 33.8046C157.485 33.9399 157.809 34.4836 157.674 35.0191L155.47 43.7449ZM0.669098 38.9239C1.32538 37.9439 1.99857 36.9829 2.68805 36.0409L4.30191 37.2222C3.62888 38.1417 2.97167 39.0799 2.33091 40.0367L0.669098 38.9239ZM7.06113 30.5643C8.60602 28.7884 10.2139 27.0924 11.8793 25.4761L13.2722 26.9113C11.6469 28.4887 10.0778 30.1438 8.5701 31.877L7.06113 30.5643ZM17.1145 20.8067C18.9306 19.3189 20.8008 17.9141 22.719 16.5919L23.8541 18.2386C21.9807 19.5298 20.1548 20.9014 18.382 22.3538L17.1145 20.8067ZM28.6474 12.8525C30.6756 11.6851 32.7467 10.6015 34.8545 9.60131L35.7119 11.4082C33.6511 12.3861 31.6269 13.4452 29.6451 14.5859L28.6474 12.8525ZM41.2956 6.84517C43.4768 6.00933 45.689 5.25682 47.9258 4.58722L48.4994 6.50321C46.3098 7.15866 44.1451 7.89505 42.0112 8.71275L41.2956 6.84517ZM54.7033 2.82688C56.982 2.32292 59.2793 1.90127 61.5891 1.5615L61.8802 3.5402C59.6171 3.8731 57.3668 4.28614 55.1352 4.77969L54.7033 2.82688ZM68.5462 0.787672C70.8727 0.611289 73.2057 0.516166 75.5393 0.501886L75.5516 2.50185C73.2641 2.51585 70.9774 2.60909 68.6974 2.78195L68.5462 0.787672ZM82.5353 0.701151C84.8645 0.848186 87.1884 1.07571 89.5007 1.38332L89.2369 3.36586C86.9704 3.06434 84.6926 2.84131 82.4093 2.69718L82.5353 0.701151ZM96.4022 2.54714C98.6899 3.01561 100.96 3.56413 103.207 4.19232L102.668 6.11844C100.467 5.50303 98.2429 4.96557 96.001 4.50648L96.4022 2.54714ZM109.878 6.31853C112.076 7.10784 114.245 7.97686 116.377 8.92525L115.564 10.7527C113.477 9.82452 111.354 8.97378 109.202 8.20089L109.878 6.31853ZM122.666 12.0109C124.721 13.1186 126.735 14.3055 128.7 15.5712L127.617 17.2527C125.696 16.0155 123.728 14.855 121.717 13.7716L122.666 12.0109ZM134.436 19.5982C136.289 21.0144 138.089 22.5083 139.828 24.0795L138.487 25.5635C136.789 24.0296 135.032 22.5708 133.222 21.1875L134.436 19.5982ZM144.831 28.9965C146.42 30.6952 147.944 32.4684 149.397 34.3157L147.826 35.5524C146.408 33.7502 144.921 32.0202 143.371 30.3626L144.831 28.9965ZM153.492 40.0059C154.133 40.9822 154.755 41.9761 155.359 42.9876L153.641 44.0124C153.052 43.0255 152.445 42.0558 151.82 41.1034L153.492 40.0059Z" fill="#FFAF16"></path> </svg> 